<svg xmlns="http://www.w3.org/2000/svg" width="60.424" height="57.724" viewBox="0 0 60.424 57.724">
  <g id="logo" transform="translate(95.778 511.983) rotate(180)">
    <circle id="Ellipse_8" data-name="Ellipse 8" cx="18.442" cy="18.442" r="18.442" transform="translate(35.355 454.258)" fill="#3ddc84"/>
    <path id="Path_14" data-name="Path 14" d="M335.97,114.482a3.748,3.748,0,1,1-3.748-3.748A3.748,3.748,0,0,1,335.97,114.482Z" transform="translate(-240.192 360.018)" fill="#4285f4"/>
    <path id="Path_15" data-name="Path 15" d="M255.068,151.729a7.5,7.5,0,1,1-7.5-7.5A7.5,7.5,0,0,1,255.068,151.729Z" transform="translate(-166.037 331.916)" fill="#ea4335"/>
    <path id="Path_16" data-name="Path 16" d="M248.761,263.961a9,9,0,1,1-9-9A9,9,0,0,1,248.761,263.961Z" transform="translate(-158.23 239.026)" fill="#fbbc05"/>
  </g>
</svg>
